<?xml version="1.0" encoding="UTF-8"?>
<!DOCTYPE svg PUBLIC "-//W3C//DTD SVG 1.1//EN" "http://www.w3.org/Graphics/SVG/1.1/DTD/svg11.dtd">
<svg xmlns="http://www.w3.org/2000/svg" version="1.1" width="512px" height="533px" style="shape-rendering:geometricPrecision; text-rendering:geometricPrecision; image-rendering:optimizeQuality; fill-rule:evenodd; clip-rule:evenodd" xmlns:xlink="http://www.w3.org/1999/xlink">
<g><path style="opacity:0.987" fill="#000000" d="M 114.5,61.5 C 208.501,61.3333 302.501,61.5 396.5,62C 438.91,70.7437 463.076,96.577 469,139.5C 469.667,229.833 469.667,320.167 469,410.5C 464.907,444.249 447.407,468.082 416.5,482C 408.426,485.102 400.093,487.102 391.5,488C 300.833,488.667 210.167,488.667 119.5,488C 85.7546,483.912 61.9212,466.412 48,435.5C 44.8994,427.431 42.8994,419.098 42,410.5C 41.0198,317.477 41.3531,224.477 43,131.5C 51.9044,92.7609 75.7377,69.4275 114.5,61.5 Z M 169.5,137.5 C 179.274,135.146 186.774,138.146 192,146.5C 194.627,154.618 192.461,161.118 185.5,166C 179.939,167.738 174.272,169.071 168.5,170C 161.408,173.421 156.908,178.921 155,186.5C 154.667,205.167 154.333,223.833 154,242.5C 153.275,244.949 152.275,247.283 151,249.5C 145.857,254.732 140.524,259.732 135,264.5C 130.333,271.167 130.333,277.833 135,284.5C 140.667,290.167 146.333,295.833 152,301.5C 152.862,303.087 153.529,304.754 154,306.5C 154.333,325.5 154.667,344.5 155,363.5C 156.922,370.528 161.089,375.694 167.5,379C 173.936,380.424 180.269,382.091 186.5,384C 196.408,394.216 195.408,403.216 183.5,411C 155.488,412.904 136.321,400.737 126,374.5C 125.206,371.529 124.539,368.529 124,365.5C 123.667,348.833 123.333,332.167 123,315.5C 101.056,298.39 95.7226,277.057 107,251.5C 111.591,244.905 116.924,238.905 123,233.5C 123.333,217.167 123.667,200.833 124,184.5C 128.893,158.775 144.059,143.109 169.5,137.5 Z M 328.5,137.5 C 351.644,136.486 369.144,145.819 381,165.5C 384.006,171.517 386.006,177.851 387,184.5C 387.333,200.833 387.667,217.167 388,233.5C 410.357,251.594 415.357,273.594 403,299.5C 399.044,305.79 394.044,311.124 388,315.5C 387.667,332.167 387.333,348.833 387,365.5C 380.649,393.847 362.982,409.514 334,412.5C 320.031,409.874 315.364,401.874 320,388.5C 321.5,387 323,385.5 324.5,384C 330.731,382.091 337.064,380.424 343.5,379C 349.911,375.694 354.078,370.528 356,363.5C 356.333,344.5 356.667,325.5 357,306.5C 357.471,304.754 358.138,303.087 359,301.5C 364.667,295.833 370.333,290.167 376,284.5C 380.203,277.944 380.203,271.277 376,264.5C 370.857,259.268 365.524,254.268 360,249.5C 358.725,247.283 357.725,244.949 357,242.5C 356.667,223.833 356.333,205.167 356,186.5C 354.092,178.921 349.592,173.421 342.5,170C 336.699,169.172 331.033,167.839 325.5,166C 314.202,155.274 315.202,145.774 328.5,137.5 Z M 285.5,175.5 C 300.137,175.961 305.97,183.294 303,197.5C 280.529,253.913 257.862,310.247 235,366.5C 229.649,373.441 222.815,375.274 214.5,372C 207.31,366.764 205.144,359.931 208,351.5C 230.333,295.833 252.667,240.167 275,184.5C 277.489,180.168 280.989,177.168 285.5,175.5 Z"/></g>
</svg>