<svg width="32" height="32" viewBox="0 0 32 32" fill="none" xmlns="http://www.w3.org/2000/svg">
  <!-- 深色背景 #1E1E1E -->
  <rect width="32" height="32" rx="6" fill="#1E1E1E"/>
  
  <!-- 左大括号 { - 青色 #4EC9B0 -->
  <!-- 顶部横线向左 -->
  <line x1="6" y1="7" x2="4" y2="7" stroke="#4EC9B0" stroke-width="2.5" stroke-linecap="round"/>
  <!-- 左侧弯曲向下 -->
  <path d="M6 7 Q4 7 4 9 L4 11 Q4 13 6 13" stroke="#4EC9B0" stroke-width="2.5" stroke-linecap="round" stroke-linejoin="round" fill="none"/>
  <!-- 中间竖线 -->
  <line x1="6" y1="13" x2="6" y2="19" stroke="#4EC9B0" stroke-width="2.5" stroke-linecap="round"/>
  <!-- 左侧弯曲向上 -->
  <path d="M6 19 Q4 19 4 21 L4 23 Q4 25 6 25" stroke="#4EC9B0" stroke-width="2.5" stroke-linecap="round" stroke-linejoin="round" fill="none"/>
  <!-- 底部横线向左 -->
  <line x1="6" y1="25" x2="4" y2="25" stroke="#4EC9B0" stroke-width="2.5" stroke-linecap="round"/>
  
  <!-- 右大括号 } - 青色 #4EC9B0 -->
  <!-- 顶部横线向右 -->
  <line x1="26" y1="7" x2="28" y2="7" stroke="#4EC9B0" stroke-width="2.5" stroke-linecap="round"/>
  <!-- 右侧弯曲向下 -->
  <path d="M26 7 Q28 7 28 9 L28 11 Q28 13 26 13" stroke="#4EC9B0" stroke-width="2.5" stroke-linecap="round" stroke-linejoin="round" fill="none"/>
  <!-- 中间竖线 -->
  <line x1="26" y1="13" x2="26" y2="19" stroke="#4EC9B0" stroke-width="2.5" stroke-linecap="round"/>
  <!-- 右侧弯曲向上 -->
  <path d="M26 19 Q28 19 28 21 L28 23 Q28 25 26 25" stroke="#4EC9B0" stroke-width="2.5" stroke-linecap="round" stroke-linejoin="round" fill="none"/>
  <!-- 底部横线向右 -->
  <line x1="26" y1="25" x2="28" y2="25" stroke="#4EC9B0" stroke-width="2.5" stroke-linecap="round"/>
  
  <!-- 灰色键值对线条 #D4D4D4 -->
  <line x1="10" y1="12" x2="22" y2="12" stroke="#D4D4D4" stroke-width="1.8" stroke-linecap="round"/>
  <line x1="10" y1="16" x2="20" y2="16" stroke="#D4D4D4" stroke-width="1.8" stroke-linecap="round"/>
  <line x1="10" y1="20" x2="22" y2="20" stroke="#D4D4D4" stroke-width="1.8" stroke-linecap="round"/>
  
  <!-- 橙色冒号 #CE9178 -->
  <circle cx="8.5" cy="12" r="1.3" fill="#CE9178"/>
  <circle cx="8.5" cy="16" r="1.3" fill="#CE9178"/>
  <circle cx="8.5" cy="20" r="1.3" fill="#CE9178"/>
</svg>
